<?xml version="1.0" encoding="UTF-8"?>
<svg width="83px" height="40px" viewBox="0 0 83 40" version="1.1" xmlns="http://www.w3.org/2000/svg" xmlns:xlink="http://www.w3.org/1999/xlink">
    <!-- Generator: Sketch 52.6 (67491) - http://www.bohemiancoding.com/sketch -->
    <title>AXPELOGO</title>
    <desc>Created with Sketch.</desc>
    <g id="Symbols" stroke="none" stroke-width="1" fill="none" fill-rule="evenodd">
        <g id="menu-home" transform="translate(-57.000000, -44.000000)">
            <g id="Page-1">
                <g transform="translate(50.000000, 44.000000)">
                    <g id="Group-54">
                        <g id="AXPELOGO" transform="translate(7.000000, 0.000000)">
                            <path d="M75.5903806,16.056077 L69.1068736,16.056077 C69.1068736,15.5329953 69.1937694,14.9332837 69.4712972,14.3695549 C69.8781583,13.4473318 70.7700194,12.6883636 72.3509847,12.6883636 C73.9299292,12.6883636 74.8190958,13.4473318 75.2286514,14.3695549 C75.5075264,14.9332837 75.5903806,15.5329953 75.5903806,16.056077 Z M57.6413389,9.7191251 C57.6413389,11.205077 56.5137139,12.6097347 54.5636097,12.6097347 L50.5562972,12.6097347 L50.5562972,6.8345126 L54.5636097,6.8345126 C56.5137139,6.8345126 57.6413389,8.23583856 57.6413389,9.7191251 Z M43.4685611,27.0667809 L37.2713389,18.0597799 L43.4685611,9.10875202 L43.4685611,27.0667809 Z M16.6514292,18.982003 L11.6249431,18.982003 L14.2196931,11.3669991 L16.6514292,18.982003 Z M81.9741931,20.4213107 C82.6592556,15.7395626 80.9934153,12.2972184 80.9934153,12.2972184 C79.4899153,9.29133087 76.5469083,7.27696644 72.3509847,7.27696644 C69.0974431,7.27696644 66.3848111,8.56168183 64.6482417,10.9745212 C64.7061722,10.5627193 64.7310958,10.1422549 64.7310958,9.7191251 C64.7310958,5.03204625 61.2896167,0.542205865 54.8889639,0.542205865 L43.4685611,0.542205865 L43.4685611,7.51685106 L36.5849292,7.51685106 L33.5415542,12.7270116 L30.5870958,7.51685106 L22.6054778,7.51551837 L29.8979917,18.0597799 L25.5430958,24.3973982 L16.7706583,0.542205865 L11.3056514,0.542205865 L0.773068056,29.0778136 L8.22455417,29.0778136 L9.64048472,24.8291905 L18.5159847,24.8291905 L19.8477139,29.0778136 L30.3021583,29.0778136 L33.5415542,23.627102 L36.8678458,29.0778136 L50.5562972,29.0778136 L50.5562972,18.8987097 L54.8889639,18.8987097 C58.5345472,18.8987097 61.2222556,17.4407443 62.8577833,15.3224299 C62.6812972,16.244653 62.5876653,17.232178 62.5876653,18.2996645 C62.5876653,27.5978587 68.1382208,29.3190309 72.9552139,29.3190309 C75.4179361,29.3190309 77.1875125,28.8759107 78.6990958,28.0329828 C78.6990958,28.0329828 79.9964708,27.3233241 81.2978875,25.7867299 L79.8705056,24.3734097 L77.4549361,21.9865578 C76.2794847,23.1466664 75.2670472,23.7863587 72.9552139,23.7863587 C70.4844083,23.7863587 69.1068736,22.1857953 69.1068736,20.4213107 L81.9741931,20.4213107 Z" id="logo" fill="#EE6900"></path>
                            <g id="letters" transform="translate(0.000000, 34.000000)" fill="#231F20">
                                <path d="M80.5398056,4.90775202 C80.1046528,4.90775202 79.7624583,4.72250779 79.5543125,4.37534144 L79.4896458,4.26539433 L78.8557778,4.6851924 L78.9292014,4.78581067 C79.293625,5.28956837 79.8426181,5.54877702 80.5741597,5.54877702 C81.3696944,5.54877702 82.1726389,5.05234913 82.1726389,4.10547125 C82.1726389,3.0826299 81.4215625,2.8587376 80.7594028,2.66016644 C80.1147569,2.47025779 79.7186736,2.32566067 79.7186736,1.77192702 C79.7186736,1.20553279 80.2279236,1.00429625 80.6657708,1.00429625 C81.0281736,1.00429625 81.2895347,1.1349001 81.4963333,1.41743087 L81.5657153,1.51671644 L82.1504097,1.10091644 L82.0749653,1.00163087 C81.7489375,0.578501058 81.2780833,0.364603942 80.6778958,0.364603942 C79.8857292,0.364603942 79.0336111,0.803726058 79.0336111,1.77192702 C79.0336111,2.82342125 79.8385764,3.07463375 80.4872639,3.27387125 C81.1069861,3.46911067 81.4855556,3.6123751 81.4855556,4.10547125 C81.4855556,4.57791067 81.0975556,4.90775202 80.5398056,4.90775202" id="Fill-36"></path>
                                <polygon id="Fill-38" points="67.0642153 5.42970096 67.7519722 5.42970096 67.7519722 0.481414423 67.0642153 0.481414423"></polygon>
                                <path d="M71.9446625,1.39377558 L72.8392181,3.54074288 L71.0211417,3.54074288 L71.9446625,1.39377558 Z M70.7436139,4.17976885 L73.1026,4.17976885 L73.6179125,5.42983423 L74.3811139,5.42983423 L72.3063917,0.556178462 L72.2747319,0.481547692 L71.6563569,0.481547692 L69.4738569,5.42983423 L70.2053986,5.42983423 L70.7436139,4.17976885 Z" id="Fill-39"></path>
                                <path d="M65.1269771,4.64161337 L65.1970326,4.54565952 L64.6359146,4.1251951 L64.562491,4.23247683 C64.2310743,4.7302374 63.653116,4.90748548 63.2604007,4.90748548 C62.1273868,4.90748548 61.3641854,4.1251951 61.3641854,2.9557576 C61.3641854,1.80564413 62.1401854,1.00402971 63.2604007,1.00402971 C63.7480951,1.00402971 64.1886368,1.22059221 64.4351785,1.58641625 L64.5072549,1.69569702 L65.0703937,1.2392499 L64.9969701,1.14862683 C64.5820257,0.628210481 63.9993521,0.364337404 63.2604007,0.364337404 C61.7629632,0.364337404 60.6764285,1.45314702 60.6764285,2.9557576 C60.6764285,4.45636913 61.7629632,5.54851048 63.2604007,5.54851048 C64.0518937,5.54851048 64.683741,5.24532298 65.1269771,4.64161337" id="Fill-27"></path>
                                <polygon id="Fill-40" points="76.1074444 5.42970096 76.7965486 5.42970096 76.7965486 0.481414423 76.1074444 0.481414423"></polygon>
                                <polygon id="Fill-42" points="58.9171583 4.78867596 56.3412694 4.78867596 56.3412694 3.19544231 58.6524292 3.19544231 58.6524292 2.55708269 56.3412694 2.55708269 56.3412694 1.12243942 58.8093806 1.12243942 58.8093806 0.481414423 55.6528389 0.481414423 55.6528389 5.42970096 58.9171583 5.42970096"></polygon>
                                <path d="M51.1403854,1.12243942 L51.9978924,1.12243942 C52.4377604,1.12243942 52.911309,1.31234808 52.911309,1.845425 C52.911309,2.48778269 52.2915868,2.55708269 52.0255104,2.55708269 L51.1403854,2.55708269 L51.1403854,1.12243942 Z M51.1403854,3.19544231 L52.0457187,3.19544231 C52.9860799,3.19544231 53.5977187,2.66636346 53.5977187,1.845425 C53.5977187,0.581366346 52.3299826,0.481414423 51.9426562,0.481414423 L50.4526285,0.481414423 L50.4526285,5.42970096 L51.1403854,5.42970096 L51.1403854,3.19544231 Z" id="Fill-43"></path>
                                <path d="M46.9210875,2.66009981 C46.2791361,2.47019115 45.8857472,2.32559404 45.8857472,1.77186038 C45.8857472,1.20546615 46.3976917,1.00422962 46.8341917,1.00422962 C47.1905319,1.00422962 47.4552611,1.13483346 47.6620597,1.41736423 L47.7354833,1.51664981 L48.3181569,1.10084981 L48.2420389,1.00156423 C47.9146639,0.578434423 47.4458306,0.364537308 46.8449694,0.364537308 C46.0554972,0.364537308 45.1973167,0.803659423 45.1973167,1.77186038 C45.1973167,2.82335462 46.0029556,3.07456712 46.6529903,3.27380462 C47.2700181,3.46904404 47.6526292,3.61230846 47.6526292,4.10540462 C47.6526292,4.57784404 47.2632819,4.90768538 46.7041847,4.90768538 C46.2697056,4.90768538 45.9261639,4.72244115 45.7200389,4.37527481 L45.6553722,4.26532769 L45.0215042,4.68512577 L45.0922333,4.78574404 C45.4580042,5.28950173 46.0117125,5.54871038 46.7392125,5.54871038 C47.5340736,5.54871038 48.3390389,5.0522825 48.3390389,4.10540462 C48.3390389,3.08256327 47.5866153,2.85867096 46.9210875,2.66009981" id="Fill-21"></path>
                                <polygon id="Fill-44" points="43.2978007 4.78867596 40.7212382 4.78867596 40.7212382 3.19544231 43.035766 3.19544231 43.035766 2.55708269 40.7212382 2.55708269 40.7212382 1.12243942 43.1886757 1.12243942 43.1886757 0.481414423 40.0341549 0.481414423 40.0341549 5.42970096 43.2978007 5.42970096"></polygon>
                                <path d="M33.1982146,4.90775202 C32.7630618,4.90775202 32.4208674,4.72250779 32.2113743,4.37534144 L32.1473812,4.26539433 L31.5108187,4.6851924 L31.584916,4.78581067 C31.9506868,5.28956837 32.5037215,5.54877702 33.2318951,5.54877702 C34.0281035,5.54877702 34.8337424,5.05234913 34.8337424,4.10547125 C34.8337424,3.0826299 34.0786243,2.8587376 33.4164646,2.66016644 C32.7724924,2.47025779 32.376409,2.32566067 32.376409,1.77192702 C32.376409,1.20553279 32.885659,1.00429625 33.3241799,1.00429625 C33.6865826,1.00429625 33.9472701,1.1349001 34.1540687,1.41743087 L34.2241243,1.51671644 L34.8108396,1.10091644 L34.7340479,1.00163087 C34.4080201,0.578501058 33.9351451,0.364603942 33.3363049,0.364603942 C32.5434646,0.364603942 31.6906729,0.803726058 31.6906729,1.77192702 C31.6906729,2.82342125 32.4956382,3.07463375 33.1423049,3.27387125 C33.7653951,3.46911067 34.1453118,3.6123751 34.1453118,4.10547125 C34.1453118,4.57791067 33.755291,4.90775202 33.1982146,4.90775202" id="Fill-45"></path>
                                <polygon id="Fill-47" points="28.7660556 5.42970096 29.4538125 5.42970096 29.4538125 0.481414423 28.7660556 0.481414423"></polygon>
                                <polygon id="Fill-48" points="26.6963181 4.78867596 24.12245 4.78867596 24.12245 3.19544231 26.4369778 3.19544231 26.4369778 2.55708269 24.12245 2.55708269 24.12245 1.12243942 26.5885403 1.12243942 26.5885403 0.481414423 23.4326722 0.481414423 23.4326722 5.42970096 26.6963181 5.42970096"></polygon>
                                <polygon id="Fill-49" points="19.2438215 5.42963433 19.8547868 5.42963433 21.7536965 0.481347788 21.0228285 0.481347788 19.5637868 4.38413721 18.1114812 0.481347788 17.3772451 0.481347788 19.2121618 5.34967279"></polygon>
                                <path d="M13.424091,1.00402971 C14.5402646,1.00402971 15.318959,1.80564413 15.318959,2.9557576 C15.318959,4.1251951 14.555084,4.90748548 13.424091,4.90748548 C12.3072438,4.90748548 11.5272021,4.10520471 11.5272021,2.9557576 C11.5272021,1.80564413 12.3072438,1.00402971 13.424091,1.00402971 M13.424091,5.54851048 C14.9201813,5.54851048 16.0033479,4.45636913 16.0033479,2.9557576 C16.0033479,1.45314702 14.9201813,0.364337404 13.424091,0.364337404 C11.9266535,0.364337404 10.8401188,1.45314702 10.8401188,2.9557576 C10.8401188,4.48102394 11.9017299,5.54851048 13.424091,5.54851048" id="Fill-50"></path>
                                <polygon id="Fill-51" points="4.46910486 1.70742471 6.09250764 5.35766894 6.12282014 5.42963433 6.47511875 5.42963433 8.10458403 1.71075644 8.10458403 5.42963433 8.79234097 5.42963433 8.79234097 0.481347788 7.95975764 0.481347788 6.30402153 4.24953529 4.67859792 0.555978558 4.64559097 0.481347788 3.78134792 0.481347788 3.78134792 5.42963433 4.46910486 5.42963433"></polygon>
                                <polygon id="Fill-52" points="0.735076389 5.42970096 1.42283333 5.42970096 1.42283333 0.481414423 0.735076389 0.481414423"></polygon>
                            </g>
                        </g>
                    </g>
                </g>
            </g>
        </g>
    </g>
</svg>