<?xml version="1.0" encoding="UTF-8"?>
<svg id="Camada_1" data-name="Camada 1" xmlns="http://www.w3.org/2000/svg" viewBox="0 0 717.39 676.62">
  <defs>
    <style>
      .cls-1 {
        fill: #ff6b00;
      }
    </style>
  </defs>
  <path class="cls-1" d="M520.72,135.78c-66.13,0-133.26,22.25-169.68,72.88,5.88-17.14,9.28-35.04,9.28-53.82C360.32,66.05,300.87,0,185.66,0,78.52,0,0,52.1,0,151.17v25.68H118.15v-15.41c0-35.96,17.61-62.38,57.97-62.38,42.56,0,57.97,24.22,57.97,52.84v11.01c0,41.83-28.62,74.85-66.04,117.42L13.94,459.39v74.12H324.27c10.52,105.1,108.43,143.12,197.19,143.12,93.2,0,195.94-49.17,195.94-163.65v-209.88c0-119.62-100.54-167.32-196.67-167.32ZM176.86,429.3l49.9-54.31c33.91-36.55,75.21-76.27,102.82-121.54-4.05,14.36-6.26,30.15-6.26,47.44v129.87H176.86v-1.47Zm409.91,81.47c0,32.29-21.28,63.84-65.31,63.84s-66.78-29.35-66.78-62.38v-213.55c0-34.49,24.22-61.64,66.78-61.64s65.31,26.42,65.31,59.44v214.28Z"/>
  <path class="cls-1" d="M71.52,553.96c-10.48,0-15.47,9.3-15.47,21.03,.06,11.48,4.68,20.9,15.16,20.9s15.41-8.61,15.41-21.15c0-11.11-4.24-20.78-15.1-20.78Zm-.06,34.75c-3.68,0-5.93-4.43-5.86-13.73-.06-9.42,2.31-13.85,5.8-13.85,3.81,0,5.74,4.74,5.74,13.73s-2,13.85-5.68,13.85Z"/>
  <path class="cls-1" d="M35.52,587.28l3.74-3.12c5.86-5.24,10.79-10.67,10.79-17.47,0-7.36-5.05-12.73-14.23-12.73-5.49,0-10.23,1.87-13.29,4.18l2.68,6.8c2.12-1.62,5.18-3.37,8.67-3.37,4.68,0,6.68,2.62,6.68,5.93-.12,4.74-4.43,9.3-13.29,17.22l-5.24,4.74v5.74h28.76v-7.8h-15.29v-.13Z"/>
  <path class="cls-1" d="M230.69,553.96c-10.48,0-15.47,9.3-15.47,21.03,.06,11.48,4.68,20.9,15.16,20.9s15.41-8.61,15.41-21.15c0-11.11-4.24-20.78-15.1-20.78Zm-.06,34.75c-3.68,0-5.93-4.43-5.86-13.73-.06-9.42,2.31-13.85,5.8-13.85,3.81,0,5.74,4.74,5.74,13.73s-2,13.85-5.68,13.85Z"/>
  <path class="cls-1" d="M263.95,587.28l3.74-3.12c5.86-5.24,10.79-10.67,10.79-17.47,0-7.36-5.05-12.73-14.23-12.73-5.49,0-10.23,1.87-13.29,4.18l2.68,6.8c2.12-1.62,5.18-3.37,8.67-3.37,4.68,0,6.68,2.62,6.68,5.93-.12,4.74-4.43,9.3-13.29,17.22l-5.24,4.74v5.74h28.76v-7.8h-15.29v-.13Z"/>
  <path class="cls-1" d="M304.69,573.61v-.13c4.99-1.75,7.43-5.12,7.43-9.42,0-5.55-4.81-10.11-13.48-10.11-5.24,0-10.11,1.5-12.54,3.06l1.93,6.86c1.69-1,5.18-2.43,8.49-2.43,3.99,0,5.99,1.81,5.99,4.24,0,3.43-4.06,4.62-7.24,4.68h-3.68v6.8h3.87c4.18,0,8.17,1.81,8.17,5.8,0,3.06-2.49,5.43-7.43,5.43-3.87,0-7.74-1.62-9.42-2.5l-1.93,7.11c2.37,1.5,6.8,2.87,12.04,2.87,10.3,0,16.6-5.24,16.6-12.42,0-5.3-3.93-8.99-8.8-9.86Z"/>
  <path class="cls-1" d="M145.52,573.61v-.13c4.99-1.75,7.42-5.12,7.42-9.42,0-5.55-4.8-10.11-13.48-10.11-5.24,0-10.11,1.5-12.54,3.06l1.93,6.86c1.69-1,5.18-2.43,8.49-2.43,3.99,0,5.99,1.81,5.99,4.24,0,3.43-4.06,4.62-7.24,4.68h-3.68v6.8h3.87c4.18,0,8.17,1.81,8.17,5.8,0,3.06-2.5,5.43-7.43,5.43-3.87,0-7.74-1.62-9.42-2.5l-1.93,7.11c2.37,1.5,6.8,2.87,12.04,2.87,10.3,0,16.6-5.24,16.6-12.42,0-5.3-3.93-8.99-8.8-9.86Z"/>
  <path class="cls-1" d="M194.69,587.28l3.74-3.12c5.86-5.24,10.79-10.67,10.79-17.47,0-7.36-5.05-12.73-14.23-12.73-5.49,0-10.23,1.87-13.29,4.18l2.68,6.8c2.12-1.62,5.18-3.37,8.67-3.37,4.68,0,6.68,2.62,6.68,5.93-.12,4.74-4.43,9.3-13.29,17.22l-5.24,4.74v5.74h28.76v-7.8h-15.29v-.13Z"/>
  <path class="cls-1" d="M106.15,553.96c-10.48,0-15.47,9.3-15.47,21.03,.06,11.48,4.68,20.9,15.16,20.9s15.41-8.61,15.41-21.15c0-11.11-4.24-20.78-15.1-20.78Zm-.06,34.75c-3.68,0-5.93-4.43-5.86-13.73-.06-9.42,2.31-13.85,5.8-13.85,3.81,0,5.74,4.74,5.74,13.73s-2,13.85-5.68,13.85Z"/>
  <polygon class="cls-1" points="158.94 597.7 165.24 597.7 178.59 552.46 172.29 552.46 158.94 597.7"/>
  <path class="cls-1" d="M447.63,109.6h-20.83l-3.91,11.28h-12.35l20.18-54.88h13.35l20.03,54.88h-12.81l-3.65-11.28Zm-3.3-9.46l-7.06-21.59-7.29,21.59h14.35Z"/>
  <path class="cls-1" d="M517,120.88h-11.82l-23.1-38.98v38.98h-11.01v-54.88h12.39l22.52,38.31v-38.31h11.01v54.88Z"/>
  <path class="cls-1" d="M553.02,122.41c-8.08,0-14.26-2.13-18.53-6.4-5.73-5.24-8.59-12.78-8.59-22.63s2.86-17.6,8.59-22.64c4.27-4.27,10.45-6.4,18.53-6.4s14.26,2.13,18.53,6.4c5.7,5.04,8.56,12.58,8.56,22.64s-2.85,17.4-8.56,22.63c-4.27,4.27-10.45,6.4-18.53,6.4Zm11.17-14.74c2.74-3.35,4.11-8.12,4.11-14.3s-1.38-10.91-4.12-14.28c-2.75-3.36-6.46-5.04-11.15-5.04s-8.42,1.68-11.2,5.03-4.18,8.12-4.18,14.3,1.39,10.94,4.18,14.3,6.52,5.03,11.2,5.03,8.4-1.68,11.17-5.03Z"/>
  <path class="cls-1" d="M609.66,112.95c2.79,0,5.05-.3,6.79-.89,3.3-1.14,4.95-3.26,4.95-6.37,0-1.81-.82-3.21-2.46-4.21-1.64-.97-4.21-1.82-7.71-2.57l-5.99-1.3c-5.88-1.29-9.95-2.69-12.2-4.21-3.81-2.53-5.72-6.49-5.72-11.88,0-4.91,1.84-9,5.53-12.25,3.68-3.25,9.09-4.88,16.23-4.88,5.96,0,11.04,1.53,15.25,4.6,4.21,3.07,6.41,7.51,6.62,13.35h-11.36c-.21-3.3-1.69-5.65-4.45-7.04-1.84-.92-4.13-1.38-6.87-1.38-3.04,0-5.47,.6-7.29,1.79s-2.72,2.85-2.72,4.99c0,1.96,.89,3.42,2.69,4.39,1.15,.65,3.61,1.4,7.37,2.27l9.75,2.27c4.27,.99,7.49,2.32,9.67,3.98,3.38,2.58,5.06,6.32,5.06,11.21s-1.98,9.18-5.93,12.49c-3.95,3.31-9.54,4.97-16.75,4.97s-13.16-1.63-17.38-4.9c-4.22-3.26-6.33-7.75-6.33-13.46h11.28c.36,2.51,1.06,4.38,2.11,5.62,1.92,2.26,5.21,3.39,9.86,3.39Z"/>
</svg>