<?xml version="1.0" encoding="UTF-8"?>
<svg id="Camada_1" data-name="Camada 1" xmlns="http://www.w3.org/2000/svg" viewBox="0 0 306 306">
  <defs>
    <style>
      .cls-1 {
        fill: #ff6b00;
      }

      .cls-2 {
        fill: #231f20;
      }
    </style>
  </defs>
  <polygon class="cls-2" points="90.46 184.25 91.87 184.25 94.42 181.51 92.44 181.51 90.46 184.25"/>
  <path class="cls-2" d="M165.13,190.25c-1.42-.43-2.3-.75-2.3-1.99s1.14-1.72,2.1-1.72c.79,0,1.38,.29,1.84,.93l.16,.22,1.29-.93-.17-.22c-.73-.95-1.77-1.43-3.1-1.43-1.75,0-3.65,.98-3.65,3.16,0,2.36,1.79,2.92,3.23,3.37,1.37,.44,2.22,.76,2.22,1.86s-.86,1.8-2.1,1.8c-.96,0-1.72-.42-2.18-1.19l-.14-.25-1.41,.94,.16,.23c.81,1.13,2.04,1.71,3.65,1.71,1.76,0,3.55-1.11,3.55-3.24,0-2.29-1.67-2.8-3.14-3.24"/>
  <path class="cls-2" d="M205.51,194.7l.15-.22-1.24-.94-.16,.24c-.74,1.12-2.02,1.51-2.89,1.51-2.51,0-4.21-1.75-4.21-4.38s1.72-4.38,4.21-4.38c1.08,0,2.06,.49,2.61,1.31l.16,.25,1.25-1.02-.16-.2c-.92-1.17-2.21-1.76-3.85-1.76-3.32,0-5.73,2.44-5.73,5.81s2.41,5.81,5.73,5.81c1.76,0,3.16-.68,4.14-2.03"/>
  <path class="cls-2" d="M239.69,195.29c-.97,0-1.72-.42-2.19-1.19l-.14-.25-1.41,.94,.16,.23c.81,1.13,2.03,1.71,3.65,1.71,1.77,0,3.55-1.11,3.55-3.24,0-2.29-1.67-2.8-3.13-3.24-1.43-.43-2.31-.75-2.31-1.99s1.13-1.72,2.1-1.72c.8,0,1.38,.29,1.84,.93l.15,.22,1.3-.93-.17-.22c-.72-.95-1.77-1.43-3.1-1.43-1.76,0-3.65,.98-3.65,3.16,0,2.36,1.79,2.92,3.22,3.37,1.37,.44,2.21,.76,2.21,1.86s-.86,1.8-2.1,1.8"/>
  <rect class="cls-2" x="209.8" y="185.37" width="1.53" height="11.1"/>
  <path class="cls-2" d="M217.97,193.66h5.23l1.14,2.8h1.69l-4.6-10.93-.07-.17h-1.37l-4.84,11.1h1.62l1.19-2.8Zm2.66-6.25l1.98,4.81h-4.03l2.05-4.81Z"/>
  <rect class="cls-2" x="229.87" y="185.37" width="1.53" height="11.1"/>
  <polygon class="cls-2" points="191.73 195.03 186.02 195.03 186.02 191.45 191.15 191.45 191.15 190.02 186.02 190.02 186.02 186.81 191.5 186.81 191.5 185.37 184.49 185.37 184.49 196.46 191.73 196.46 191.73 195.03"/>
  <path class="cls-2" d="M174.49,191.45h2.01c2.09,0,3.44-1.19,3.44-3.03,0-2.83-2.81-3.06-3.67-3.06h-3.31v11.09h1.53v-5.01Zm0-4.65h1.9c.97,0,2.03,.43,2.03,1.62,0,1.44-1.37,1.6-1.96,1.6h-1.97v-3.22Z"/>
  <polygon class="cls-2" points="157.09 195.03 151.38 195.03 151.38 191.45 156.51 191.45 156.51 190.02 151.38 190.02 151.38 186.81 156.85 186.81 156.85 185.37 149.85 185.37 149.85 196.46 157.09 196.46 157.09 195.03"/>
  <path class="cls-2" d="M134.69,195.29c-.97,0-1.72-.42-2.19-1.19l-.14-.25-1.41,.94,.16,.23c.81,1.13,2.04,1.71,3.65,1.71,1.77,0,3.55-1.11,3.55-3.24,0-2.29-1.68-2.8-3.14-3.24-1.43-.43-2.31-.75-2.31-1.99s1.13-1.72,2.1-1.72c.81,0,1.38,.29,1.84,.93l.16,.22,1.3-.93-.17-.22c-.72-.95-1.77-1.43-3.1-1.43-1.76,0-3.65,.98-3.65,3.16,0,2.36,1.79,2.92,3.22,3.37,1.38,.44,2.23,.76,2.23,1.86s-.87,1.8-2.1,1.8"/>
  <rect class="cls-2" x="124.86" y="185.37" width="1.53" height="11.1"/>
  <polygon class="cls-2" points="120.27 195.03 114.56 195.03 114.56 191.45 119.69 191.45 119.69 190.02 114.56 190.02 114.56 186.81 120.03 186.81 120.03 185.37 113.03 185.37 113.03 196.46 120.27 196.46 120.27 195.03"/>
  <polygon class="cls-2" points="103.74 196.46 105.09 196.46 109.3 185.37 107.68 185.37 104.45 194.12 101.23 185.37 99.6 185.37 103.67 196.28 103.74 196.46"/>
  <path class="cls-2" d="M90.83,196.73c3.32,0,5.72-2.45,5.72-5.81s-2.4-5.81-5.72-5.81-5.73,2.44-5.73,5.81,2.35,5.81,5.73,5.81m0-10.19c2.48,0,4.2,1.8,4.2,4.38s-1.69,4.38-4.2,4.38-4.21-1.8-4.21-4.38,1.73-4.38,4.21-4.38"/>
  <polygon class="cls-2" points="70.97 188.12 74.57 196.3 74.64 196.46 75.41 196.46 79.03 188.12 79.03 196.46 80.56 196.46 80.56 185.37 78.71 185.37 75.04 193.82 71.43 185.54 71.36 185.37 69.44 185.37 69.44 196.46 70.97 196.46 70.97 188.12"/>
  <rect class="cls-2" x="62.68" y="185.37" width="1.53" height="11.1"/>
  <path class="cls-1" d="M242.87,153.84c1.52-10.5-2.17-18.22-2.17-18.22-3.34-6.74-9.86-11.26-19.17-11.26-7.22,0-13.23,2.88-17.09,8.29,.13-.92,.18-1.87,.18-2.81,0-10.51-7.63-20.58-21.83-20.58h-25.33v15.64h-15.27l-6.75,11.68-6.55-11.68h-17.7s16.18,23.64,16.18,23.64l-9.66,14.21-19.46-53.49h-12.12l-23.36,63.98h16.53l3.14-9.53h19.69l2.95,9.53h23.19l7.19-12.22,7.38,12.22h30.36v-22.82h9.61c8.09,0,14.05-3.27,17.68-8.02-.39,2.07-.6,4.28-.6,6.67,0,20.85,12.31,24.71,23,24.71,5.46,0,9.39-.99,12.74-2.88,0,0,2.88-1.59,5.76-5.04l-3.17-3.17-5.36-5.35c-2.61,2.6-4.85,4.04-9.98,4.04-5.48,0-8.54-3.59-8.54-7.55h28.54Zm-144.89-3.23h-11.15l5.76-17.07,5.39,17.07Zm59.48,18.13l-13.75-20.2,13.75-20.07v40.27Zm31.43-38.9c0,3.33-2.5,6.48-6.83,6.48h-8.89v-12.95h8.89c4.32,0,6.83,3.14,6.83,6.47m39.81,14.21h-14.38c0-1.17,.19-2.52,.81-3.78,.9-2.07,2.88-3.77,6.39-3.77s5.47,1.7,6.38,3.77c.62,1.27,.8,2.61,.8,3.78"/>
</svg>